<svg id="Layer_1" height="512" viewBox="0 0 512 512" width="512" xmlns="http://www.w3.org/2000/svg" xmlns:xlink="http://www.w3.org/1999/xlink" data-name="Layer 1"><linearGradient id="linear-gradient" gradientUnits="userSpaceOnUse" x1="453.032" x2="453.032" y1="473.107" y2="82.984"><stop offset=".322" stop-color="#a163f5"/><stop offset=".466" stop-color="#b074ee"/><stop offset=".752" stop-color="#d8a1dd"/><stop offset=".898" stop-color="#efbad3"/></linearGradient><linearGradient id="linear-gradient-2" x1="423.378" x2="423.378" xlink:href="#linear-gradient" y1="473.106" y2="82.985"/><linearGradient id="linear-gradient-3" x1="255.991" x2="255.991" xlink:href="#linear-gradient" y1="473.106" y2="82.985"/><ellipse cx="453.032" cy="241.488" fill="url(#linear-gradient)" rx="9.002" ry="8.988"/><path d="m434.53 224.21a6 6 0 0 0 -.289-12c-5.793.14-10.053-1.124-12.658-3.755a12.508 12.508 0 0 1 -3.21-8.35 6 6 0 0 0 -11.983-.624 24.244 24.244 0 0 0 6.494 17.241c4.818 4.979 11.712 7.5 20.506 7.5.376.002.757-.003 1.14-.012z" fill="url(#linear-gradient-2)"/><path d="m494.4 248.2c-2.934-2.762-5.969-5.618-7.749-10.638-3.674-10.359-17.369-20.021-28.211-26.3a8.574 8.574 0 0 1 -3.874-4.714c-10.114-30.735-43.122-36.095-56.845-36.974a9.083 9.083 0 0 0 -8.072 3.979 8.863 8.863 0 0 0 -.631 8.9 22.878 22.878 0 0 1 1.508 4.169c-20.382-15.184-42.307-25.449-65.352-30.532-22.852-5.039-46.913-5.046-71.516-.019-49.558 10.119-85.531 36.929-95.376 44.906-17.728 14.363-32.8 18.131-43.949 19.81-13.74 2.067-34.327 6.7-54.372 17.032-19.761 10.181-34.024 23.356-42.389 39.149-10.472 19.77-10.079 43.38 1 60.151a50.753 50.753 0 0 0 31.434 21.473 49.632 49.632 0 0 0 10.437 1.125 43.212 43.212 0 0 0 28.857-10.649c9.858-8.7 14.816-21.674 13.6-35.592-.888-10.169-5.163-17.72-12.361-21.837a17.638 17.638 0 0 0 -11.55-2.006 8.558 8.558 0 0 0 -4.5 2.048c-1.312 1.2-4.053 4.641-1.191 10.583 2.6 5.4 3.4 10.869 2.258 15.4-1.709 6.764-8.469 12.241-15.724 12.739-7.207.5-14.838-3.756-18.561-10.338a23.879 23.879 0 0 1 -.08-22.246c5.885-11.31 19.328-16.307 29.947-17.212 9.749-.833 19.655 1.082 30.146 3.106a191.386 191.386 0 0 0 20.684 3.209 165.811 165.811 0 0 1 34.139 6.423c4.449 1.333 8.755 3.056 13.314 4.881 2.957 1.184 5.989 2.385 9.089 3.493l-2.953 12.247a21 21 0 0 0 16.058 25.44 14.391 14.391 0 0 0 2.068.276l5.951.393a18.34 18.34 0 0 0 4.668 9.3c8.079 8.6 22.953 8.171 34.905 7.832 2.9-.082 5.629-.16 7.779-.08a12.762 12.762 0 0 0 12.1-18.1l-1.351-2.92c-2.839-6.135-11.186-10.236-15.909-12.135a3.067 3.067 0 0 1 -1.964-2.827l-.029-12.906c10.767 3.546 30.625 8.936 51.859 8.936a105.736 105.736 0 0 0 21.745-2.152 194.078 194.078 0 0 0 11.713 25.418c2.564 4.653 7.7 8.943 13.739 11.474a14.815 14.815 0 0 0 5.763 1.142h27.579a15.03 15.03 0 0 0 9.622-26.578 15.1 15.1 0 0 0 -6.532-3.162l-19.889-4.177a1.8 1.8 0 0 1 -1.341-1.183l-1.507-4.527a182.853 182.853 0 0 0 23.287-3.359c5.868 5.089 21.4 16.974 40.261 18.774 11.532 1.1 24.738 5 33.785 8.069a38.863 38.863 0 0 0 31.36-2.813 8.513 8.513 0 0 0 .011-14.87l-1.03-.577c-7.265-4.084-20.248-11.383-33.747-11.962a30.711 30.711 0 0 0 -.885-3.394c9.907-1.742 21.513-4.223 31.47-8.676 16.086-7.194 24.453-18 24.886-32.111 0-.059.009-.117.011-.176v-.016c.175-6.804-3.954-10.691-7.593-14.119zm-291.98 70c-.3 1.7-.75 3.427-1.22 5.26-.387 1.506-.779 3.04-1.113 4.62l-5.6-.37a2.818 2.818 0 0 1 -.352-.037 8.985 8.985 0 0 1 -5.773-4.032 8.876 8.876 0 0 1 -1.127-6.86l2.884-11.961.19.035c4.7.834 9.138 1.623 11.033 4.15 1.909 2.553 1.492 6.855 1.073 9.195zm266.59 7.974a26.913 26.913 0 0 1 -15.228-.618c-9.652-3.279-23.82-7.442-36.5-8.652-10.411-.994-19.876-6.023-26.4-10.456 9.885-1.875 16.661-1.271 23.248-.675 5.525.5 11.236 1.016 17.939-.187.493-.088 1-.177 1.522-.266a17.924 17.924 0 0 1 1.441 5.915 7.812 7.812 0 0 0 2.6 5.446 7.894 7.894 0 0 0 5.756 2.018c8.795-.499 18.503 3.742 25.617 7.472zm-40.28-56.674a6 6 0 0 0 7.66 3.651c9.06-3.212 15.367-2.014 22.67-.627a73.217 73.217 0 0 0 14.156 1.689 48.83 48.83 0 0 0 13.838-2.049c-7.633 12.368-28.966 16.972-50.693 20.53-2.312.378-4.472.732-6.422 1.082-5.113.917-9.575.513-14.741.046-8.44-.761-18.942-1.712-35.594 2.974-11.442 3.22-24.332 4.446-30.931 4.889l-6.773-20.346a6 6 0 1 0 -11.385 3.791l8.22 24.691v.009l3.968 11.918a13.846 13.846 0 0 0 10.26 9.137l19.889 4.177a3.034 3.034 0 0 1 1.317.638 3.03 3.03 0 0 1 -1.94 5.358h-27.576a2.931 2.931 0 0 1 -1.124-.209c-3.517-1.474-6.605-3.907-7.867-6.2-4.143-7.521-17.6-33.51-16.781-52.189a14.128 14.128 0 0 1 16.41-13.311l30.56 4.971a6 6 0 1 0 1.926-11.844l-30.559-4.972a26.128 26.128 0 0 0 -30.325 24.633 72.921 72.921 0 0 0 2.86 21.6c-28 5.421-59.372-4.27-69.949-8.014v-.57a33.225 33.225 0 0 0 -14.728-27.873 33.747 33.747 0 0 0 -4.327-2.412l-39.139-18.177a6 6 0 1 0 -5.054 10.883l39.136 18.177a21.583 21.583 0 0 1 2.785 1.553 21.255 21.255 0 0 1 9.323 17.876l.06 26.193a15.015 15.015 0 0 0 9.488 13.934c5.793 2.328 9.042 5.083 9.494 6.04l1.351 2.92a.674.674 0 0 1 -.056.716.761.761 0 0 1 -.7.351c-2.548-.1-5.473-.013-8.571.076-9.047.254-21.434.611-25.819-4.056-.545-.579-2.2-2.342-1.756-7.251a48.5 48.5 0 0 1 1.522-7.46c.5-1.963 1.026-3.993 1.409-6.127 1.337-7.456.2-13.857-3.29-18.512-4.735-6.316-12.387-7.675-18.536-8.767a51.122 51.122 0 0 1 -5.657-1.21c-4.293-1.315-8.453-2.98-12.858-4.743-4.6-1.842-9.365-3.748-14.329-5.235a177.871 177.871 0 0 0 -36.615-6.889 179.7 179.7 0 0 1 -19.379-3.031c-10.832-2.091-22.034-4.253-33.438-3.28-17.606 1.5-32.77 10.555-39.573 23.63a35.67 35.67 0 0 0 .28 33.692c6.008 10.624 18.01 17.223 29.828 16.4 12.4-.851 23.564-10.007 26.537-21.771a32.7 32.7 0 0 0 -.578-17.022c2.445 2.35 3.9 6.016 4.329 10.94.893 10.232-2.512 19.306-9.587 25.551-7.518 6.636-18.028 9.112-28.831 6.789a38.664 38.664 0 0 1 -23.94-16.358c-8.695-13.162-8.857-31.971-.409-47.919 4.955-9.355 25.94-40.6 87.944-49.932 7.433-1.119 27.177-4.091 49.717-22.352 19.185-15.545 52.96-34.867 90.218-42.48 49.766-10.169 95.2 1.462 135.091 34.54-.094.758-.2 1.534-.327 2.336-3.836 24.149 9.131 44.589 9.684 45.447a6 6 0 1 0 10.083-6.507c-.11-.171-11.04-17.391-7.916-37.057.372-2.336.61-4.532.75-6.608 0-.025 0-.051 0-.076a49.663 49.663 0 0 0 -1.751-17.9c12.833 1.589 34.609 7.4 41.489 28.3a20.554 20.554 0 0 0 9.257 11.346c12.49 7.235 21.057 14.686 22.916 19.929 2.751 7.757 7.423 12.154 10.834 15.365.913.86 1.606 1.533 2.155 2.109-11.535 4.62-18.788 3.25-27.026 1.685-7.874-1.494-16.8-3.189-28.918 1.106a6 6 0 0 0 -3.646 7.668z" fill="url(#linear-gradient-3)"/></svg>